<svg xmlns="http://www.w3.org/2000/svg" xmlns:xlink="http://www.w3.org/1999/xlink" viewBox="0 0 430 430" width="430" height="430" preserveAspectRatio="xMidYMid meet" style="width: 100%; height: 100%; transform: translate3d(0px, 0px, 0px); content-visibility: visible;"><defs><clipPath id="__lottie_element_413"><rect width="430" height="430" x="0" y="0"/></clipPath><clipPath id="__lottie_element_415"><path d="M0,0 L430,0 L430,430 L0,430z"/></clipPath></defs><g clip-path="url(#__lottie_element_413)"><g clip-path="url(#__lottie_element_415)" transform="matrix(1,0,0,1,0,0)" opacity="1" style="display: block;"><g transform="matrix(1,0,0,1,308.96234130859375,215)" opacity="1" style="display: none;"><g opacity="1" transform="matrix(1,0,0,1,0,0)"><path stroke-linecap="round" stroke-linejoin="round" fill-opacity="0" class="primary" stroke="rgb(18,19,49)" stroke-opacity="1" stroke-width="12" d=" M92.92708587646484,-0.0729154422879219 C92.92708587646484,-0.0729154422879219 94.00859832763672,1.0085994005203247 94.00859832763672,1.0085994005203247 C94.00859832763672,1.0085994005203247 92.93348693847656,2.084712266921997 92.93348693847656,2.084712266921997"/></g></g><g transform="matrix(1,0,0,1,215,215)" opacity="1" style="display: block;"><g opacity="1" transform="matrix(1,0,0,1,0,0)"><path stroke-linecap="round" stroke-linejoin="round" fill-opacity="0" class="primary" stroke="rgb(18,19,49)" stroke-opacity="1" stroke-width="12" d=" M-89,-182 C-89,-182 95.50399780273438,2.503999948501587 95.50399780273438,2.503999948501587 C95.50399780273438,2.503999948501587 -87.99199676513672,186 -87.99199676513672,186"/></g></g></g></g></svg>