<svg xmlns="http://www.w3.org/2000/svg" xmlns:xlink="http://www.w3.org/1999/xlink" viewBox="0 0 430 430" width="430" height="430" preserveAspectRatio="xMidYMid meet" style="width: 100%; height: 100%; transform: translate3d(0px, 0px, 0px); content-visibility: visible;"><defs><clipPath id="__lottie_element_1205"><rect width="430" height="430" x="0" y="0"/></clipPath><clipPath id="__lottie_element_1207"><path d="M0,0 L430,0 L430,430 L0,430z"/></clipPath></defs><g clip-path="url(#__lottie_element_1205)"><g clip-path="url(#__lottie_element_1207)" transform="matrix(1,0,0,1,0,0)" opacity="1" style="display: block;"><g transform="matrix(1.0399999618530273,0,0,1.0399999618530273,323.9834289550781,129.9862060546875)" opacity="1" style="display: block;"><g opacity="1" transform="matrix(1,0,0,1,0,0)"><path class="quaternary" fill="rgb(242,76,0)" fill-opacity="1" d=" M15.220999717712402,2.444000005722046 C15.220999717712402,2.444000005722046 -2.440999984741211,-15.220000267028809 -2.440999984741211,-15.220000267028809 C-3.7290000915527344,-16.507999420166016 -5.817999839782715,-16.507999420166016 -7.10699987411499,-15.220999717712402 C-7.10699987411499,-15.220999717712402 -15.220999717712402,-7.109000205993652 -15.220999717712402,-7.109000205993652 C-15.84000015258789,-6.489999771118164 -16.187999725341797,-5.651000022888184 -16.187999725341797,-4.776000022888184 C-16.187999725341797,-3.9010000228881836 -15.84000015258789,-3.062000036239624 -15.220999717712402,-2.443000078201294 C-15.220999717712402,-2.443000078201294 -8.479000091552734,4.297999858856201 -8.479000091552734,4.297999858856201 C-8.479000091552734,4.297999858856201 -9.864999771118164,5.684000015258789 -9.864999771118164,5.684000015258789 C-11.152999877929688,6.9720001220703125 -11.154000282287598,9.0600004196167 -9.866000175476074,10.348999977111816 C-9.222000122070312,10.993000030517578 -8.378000259399414,11.315999984741211 -7.5329999923706055,11.315999984741211 C-6.689000129699707,11.315999984741211 -5.843999862670898,10.994000434875488 -5.199999809265137,10.350000381469727 C-5.199999809265137,10.350000381469727 -3.813999891281128,8.96399974822998 -3.813999891281128,8.96399974822998 C-3.813999891281128,8.96399974822998 2.441999912261963,15.220000267028809 2.441999912261963,15.220000267028809 C3.0859999656677246,15.86400032043457 3.930999994277954,16.18600082397461 4.775000095367432,16.18600082397461 C5.61899995803833,16.18600082397461 6.4629998207092285,15.86400032043457 7.10699987411499,15.220000267028809 C7.10699987411499,15.220000267028809 15.220999717712402,7.109000205993652 15.220999717712402,7.109000205993652 C15.84000015258789,6.489999771118164 16.187999725341797,5.6519999504089355 16.187999725341797,4.7769999504089355 C16.187999725341797,3.9019999504089355 15.84000015258789,3.062999963760376 15.220999717712402,2.444000005722046z"/><path stroke-linecap="round" stroke-linejoin="round" fill-opacity="0" class="primary" stroke="rgb(18,19,49)" stroke-opacity="1" stroke-width="7" d=" M15.220999717712402,2.444000005722046 C15.220999717712402,2.444000005722046 -2.440999984741211,-15.220000267028809 -2.440999984741211,-15.220000267028809 C-3.7290000915527344,-16.507999420166016 -5.817999839782715,-16.507999420166016 -7.10699987411499,-15.220999717712402 C-7.10699987411499,-15.220999717712402 -15.220999717712402,-7.109000205993652 -15.220999717712402,-7.109000205993652 C-15.84000015258789,-6.489999771118164 -16.187999725341797,-5.651000022888184 -16.187999725341797,-4.776000022888184 C-16.187999725341797,-3.9010000228881836 -15.84000015258789,-3.062000036239624 -15.220999717712402,-2.443000078201294 C-15.220999717712402,-2.443000078201294 -8.479000091552734,4.297999858856201 -8.479000091552734,4.297999858856201 C-8.479000091552734,4.297999858856201 -9.864999771118164,5.684000015258789 -9.864999771118164,5.684000015258789 C-11.152999877929688,6.9720001220703125 -11.154000282287598,9.0600004196167 -9.866000175476074,10.348999977111816 C-9.222000122070312,10.993000030517578 -8.378000259399414,11.315999984741211 -7.5329999923706055,11.315999984741211 C-6.689000129699707,11.315999984741211 -5.843999862670898,10.994000434875488 -5.199999809265137,10.350000381469727 C-5.199999809265137,10.350000381469727 -3.813999891281128,8.96399974822998 -3.813999891281128,8.96399974822998 C-3.813999891281128,8.96399974822998 2.441999912261963,15.220000267028809 2.441999912261963,15.220000267028809 C3.0859999656677246,15.86400032043457 3.930999994277954,16.18600082397461 4.775000095367432,16.18600082397461 C5.61899995803833,16.18600082397461 6.4629998207092285,15.86400032043457 7.10699987411499,15.220000267028809 C7.10699987411499,15.220000267028809 15.220999717712402,7.109000205993652 15.220999717712402,7.109000205993652 C15.84000015258789,6.489999771118164 16.187999725341797,5.6519999504089355 16.187999725341797,4.7769999504089355 C16.187999725341797,3.9019999504089355 15.84000015258789,3.062999963760376 15.220999717712402,2.444000005722046z"/></g></g><g transform="matrix(1.0399999618530273,0,0,1.0399999618530273,-44.5,-42.57890319824219)" opacity="1" style="display: block;"><g opacity="1" transform="matrix(1,0,0,1,250,123.36000061035156)"><path class="quaternary" fill="rgb(242,76,0)" fill-opacity="1" d=" M22.950000762939453,-23.69300079345703 C22.950000762939453,-23.69300079345703 -22.950000762939453,-23.69300079345703 -22.950000762939453,-23.69300079345703 C-22.950000762939453,-23.69300079345703 -22.950000762939453,13.965999603271484 -22.950000762939453,13.965999603271484 C-22.950000762939453,13.965999603271484 22.950000762939453,13.965999603271484 22.950000762939453,13.965999603271484 C22.950000762939453,13.965999603271484 22.950000762939453,-23.69300079345703 22.950000762939453,-23.69300079345703z"/></g><g opacity="0.5" transform="matrix(1,0,0,1,238.52499389648438,124.86299896240234)" style="mix-blend-mode: multiply;"><path class="quaternary" fill="rgb(242,76,0)" fill-opacity="1" d=" M11.475000381469727,-22.190000534057617 C11.475000381469727,-22.190000534057617 -11.475000381469727,-22.190000534057617 -11.475000381469727,-22.190000534057617 C-11.475000381469727,-22.190000534057617 -11.475000381469727,12.461999893188477 -11.475000381469727,12.461999893188477 C-11.475000381469727,12.461999893188477 11.475000381469727,12.461999893188477 11.475000381469727,12.461999893188477 C11.475000381469727,12.461999893188477 11.475000381469727,-22.190000534057617 11.475000381469727,-22.190000534057617z"/></g><g opacity="1" transform="matrix(1,0,0,1,250,123.36000061035156)"><path stroke-linecap="round" stroke-linejoin="round" fill-opacity="0" class="primary" stroke="rgb(18,19,49)" stroke-opacity="1" stroke-width="7" d=" M22.950000762939453,-23.69300079345703 C22.950000762939453,-23.69300079345703 -22.950000762939453,-23.69300079345703 -22.950000762939453,-23.69300079345703 C-22.950000762939453,-23.69300079345703 -22.950000762939453,13.965999603271484 -22.950000762939453,13.965999603271484 C-22.950000762939453,13.965999603271484 22.950000762939453,13.965999603271484 22.950000762939453,13.965999603271484 C22.950000762939453,13.965999603271484 22.950000762939453,-23.69300079345703 22.950000762939453,-23.69300079345703z"/></g><g opacity="1" transform="matrix(1,0,0,1,250,270.7229919433594)"><path class="tertiary" fill="rgb(58,51,71)" fill-opacity="1" d=" M98.99199676513672,-98.99199676513672 C44.40800094604492,-153.5760040283203 -44.40800094604492,-153.5749969482422 -98.99199676513672,-98.99099731445312 C-153.5760040283203,-44.40700149536133 -153.5760040283203,44.40800094604492 -98.99199676513672,98.99199676513672 C-71.6969985961914,126.28700256347656 -35.854000091552734,139.92999267578125 0,139.92999267578125 C35.84600067138672,139.92999267578125 71.7030029296875,126.28099822998047 98.99199676513672,98.99199676513672 C98.99199676513672,98.99199676513672 98.99199676513672,98.99199676513672 98.99199676513672,98.99199676513672 C153.5760040283203,44.40800094604492 153.5760040283203,-44.40800094604492 98.99199676513672,-98.99199676513672z"/><path stroke-linecap="round" stroke-linejoin="round" fill-opacity="0" class="primary" stroke="rgb(18,19,49)" stroke-opacity="1" stroke-width="7" d=" M98.99199676513672,-98.99199676513672 C44.40800094604492,-153.5760040283203 -44.40800094604492,-153.5749969482422 -98.99199676513672,-98.99099731445312 C-153.5760040283203,-44.40700149536133 -153.5760040283203,44.40800094604492 -98.99199676513672,98.99199676513672 C-71.6969985961914,126.28700256347656 -35.854000091552734,139.92999267578125 0,139.92999267578125 C35.84600067138672,139.92999267578125 71.7030029296875,126.28099822998047 98.99199676513672,98.99199676513672 C98.99199676513672,98.99199676513672 98.99199676513672,98.99199676513672 98.99199676513672,98.99199676513672 C153.5760040283203,44.40800094604492 153.5760040283203,-44.40800094604492 98.99199676513672,-98.99199676513672z"/></g><g opacity="1" transform="matrix(1,0,0,1,250,100.80999755859375)"><path class="quaternary" fill="rgb(242,76,0)" fill-opacity="1" d=" M46.755001068115234,-21.190000534057617 C46.755001068115234,-21.190000534057617 -46.512001037597656,-21.190000534057617 -46.512001037597656,-21.190000534057617 C-48.72100067138672,-21.190000534057617 -50.512001037597656,-19.39900016784668 -50.512001037597656,-17.190000534057617 C-50.512001037597656,-17.190000534057617 -50.512001037597656,-2.2639999389648438 -50.512001037597656,-2.2639999389648438 C-50.512001037597656,-0.054999999701976776 -48.72100067138672,1.7359999418258667 -46.512001037597656,1.7359999418258667 C-46.512001037597656,1.7359999418258667 46.755001068115234,1.7359999418258667 46.755001068115234,1.7359999418258667 C48.9640007019043,1.7359999418258667 50.755001068115234,-0.054999999701976776 50.755001068115234,-2.2639999389648438 C50.755001068115234,-2.2639999389648438 50.755001068115234,-17.190000534057617 50.755001068115234,-17.190000534057617 C50.755001068115234,-19.39900016784668 48.9640007019043,-21.190000534057617 46.755001068115234,-21.190000534057617z"/></g><g opacity="1" transform="matrix(1,0,0,1,250,100.80999755859375)"><path stroke-linecap="round" stroke-linejoin="round" fill-opacity="0" class="primary" stroke="rgb(18,19,49)" stroke-opacity="1" stroke-width="7" d=" M46.755001068115234,-21.190000534057617 C46.755001068115234,-21.190000534057617 -46.512001037597656,-21.190000534057617 -46.512001037597656,-21.190000534057617 C-48.72100067138672,-21.190000534057617 -50.512001037597656,-19.39900016784668 -50.512001037597656,-17.190000534057617 C-50.512001037597656,-17.190000534057617 -50.512001037597656,-2.2639999389648438 -50.512001037597656,-2.2639999389648438 C-50.512001037597656,-0.054999999701976776 -48.72100067138672,1.7359999418258667 -46.512001037597656,1.7359999418258667 C-46.512001037597656,1.7359999418258667 46.755001068115234,1.7359999418258667 46.755001068115234,1.7359999418258667 C48.9640007019043,1.7359999418258667 50.755001068115234,-0.054999999701976776 50.755001068115234,-2.2639999389648438 C50.755001068115234,-2.2639999389648438 50.755001068115234,-17.190000534057617 50.755001068115234,-17.190000534057617 C50.755001068115234,-19.39900016784668 48.9640007019043,-21.190000534057617 46.755001068115234,-21.190000534057617z"/></g><g opacity="1" transform="matrix(1,0,0,1,250,270.7229919433594)"><path class="secondary" fill="rgb(235,230,239)" fill-opacity="1" d=" M87.72200012207031,-87.7229995727539 C39.35100173950195,-136.09300231933594 -39.35200119018555,-136.09300231933594 -87.7229995727539,-87.72200012207031 C-136.09300231933594,-39.35200119018555 -136.09300231933594,39.35200119018555 -87.7229995727539,87.7229995727539 C-63.53499984741211,111.91100311279297 -31.77199935913086,124 0,124 C31.764999389648438,124 63.540000915527344,111.90499877929688 87.72200012207031,87.7229995727539 C87.72200012207031,87.7229995727539 87.7229995727539,87.7229995727539 87.7229995727539,87.7229995727539 C136.09300231933594,39.35200119018555 136.0919952392578,-39.35200119018555 87.72200012207031,-87.7229995727539z"/></g><g opacity="0.5" transform="matrix(1,0,0,1,234.23599243164062,282.375)" style="mix-blend-mode: multiply;"><path class="secondary" fill="rgb(235,230,239)" fill-opacity="1" d=" M108.23400115966797,71.04499816894531 C106.71399688720703,72.75499725341797 105.1240005493164,74.43499755859375 103.48400115966797,76.07499694824219 C79.30400085449219,100.25499725341797 47.52399826049805,112.34500122070312 15.763999938964844,112.34500122070312 C-16.006000518798828,112.34500122070312 -47.76599884033203,100.25499725341797 -71.95600128173828,76.07499694824219 C-120.32599639892578,27.704999923706055 -120.32599639892578,-51.005001068115234 -71.95600128173828,-99.375 C-67.15599822998047,-104.17500305175781 -62.055999755859375,-108.50499725341797 -56.70600128173828,-112.34500122070312 C-100.26599884033203,-63.69499969482422 -98.68599700927734,11.345000267028809 -51.95600128173828,58.07500076293945 C-27.766000747680664,82.25499725341797 3.99399995803833,94.34500122070312 35.763999938964844,94.34500122070312 C61.2140007019043,94.34500122070312 86.68399810791016,86.58499908447266 108.23400115966797,71.04499816894531z"/></g><g opacity="1" transform="matrix(1,0,0,1,250,270.7229919433594)"><path stroke-linecap="round" stroke-linejoin="round" fill-opacity="0" class="primary" stroke="rgb(18,19,49)" stroke-opacity="1" stroke-width="7" d=" M87.72200012207031,-87.7229995727539 C39.35100173950195,-136.09300231933594 -39.35200119018555,-136.09300231933594 -87.7229995727539,-87.72200012207031 C-136.09300231933594,-39.35200119018555 -136.09300231933594,39.35200119018555 -87.7229995727539,87.7229995727539 C-63.53499984741211,111.91100311279297 -31.77199935913086,124 0,124 C31.764999389648438,124 63.540000915527344,111.90499877929688 87.72200012207031,87.7229995727539 C87.72200012207031,87.7229995727539 87.7229995727539,87.7229995727539 87.7229995727539,87.7229995727539 C136.09300231933594,39.35200119018555 136.0919952392578,-39.35200119018555 87.72200012207031,-87.7229995727539z"/></g><g opacity="0.5" transform="matrix(1,0,0,1,215.57400512695312,100.8740005493164)" style="mix-blend-mode: multiply;"><path class="quaternary" fill="rgb(242,76,0)" fill-opacity="1" d=" M11.475000381469727,-21.253999710083008 C11.475000381469727,-21.253999710083008 -12.086999893188477,-21.253999710083008 -12.086999893188477,-21.253999710083008 C-14.295999526977539,-21.253999710083008 -16.086999893188477,-19.46299934387207 -16.086999893188477,-17.253999710083008 C-16.086999893188477,-17.253999710083008 -16.086999893188477,-2.2009999752044678 -16.086999893188477,-2.2009999752044678 C-16.086999893188477,0.00800000037997961 -14.295999526977539,1.7990000247955322 -12.086999893188477,1.7990000247955322 C-12.086999893188477,1.7990000247955322 11.475000381469727,1.7990000247955322 11.475000381469727,1.7990000247955322 C11.475000381469727,1.7990000247955322 11.475000381469727,-21.253999710083008 11.475000381469727,-21.253999710083008z"/></g><g opacity="1" transform="matrix(1,0,0,1,0,0)"><g opacity="1" transform="matrix(1,0,0,1,250,378.010009765625)"><path stroke-linecap="round" stroke-linejoin="round" fill-opacity="0" class="primary" stroke="rgb(18,19,49)" stroke-opacity="1" stroke-width="7" d=" M0,7.486000061035156 C0,7.486000061035156 0,-7.486000061035156 0,-7.486000061035156"/></g><g opacity="1" transform="matrix(1,0,0,1,325.8630065917969,346.5870056152344)"><path stroke-linecap="round" stroke-linejoin="round" fill-opacity="0" class="primary" stroke="rgb(18,19,49)" stroke-opacity="1" stroke-width="7" d=" M5.293000221252441,5.293000221252441 C5.293000221252441,5.293000221252441 -5.293000221252441,-5.293000221252441 -5.293000221252441,-5.293000221252441"/></g><g opacity="1" transform="matrix(1,0,0,1,357.2869873046875,270.7229919433594)"><path stroke-linecap="round" stroke-linejoin="round" fill-opacity="0" class="primary" stroke="rgb(18,19,49)" stroke-opacity="1" stroke-width="7" d=" M7.486000061035156,0 C7.486000061035156,0 -7.486000061035156,0 -7.486000061035156,0"/></g><g opacity="1" transform="matrix(1,0,0,1,325.8630065917969,194.86000061035156)"><path stroke-linecap="round" stroke-linejoin="round" fill-opacity="0" class="primary" stroke="rgb(18,19,49)" stroke-opacity="1" stroke-width="7" d=" M5.293000221252441,-5.293000221252441 C5.293000221252441,-5.293000221252441 -5.293000221252441,5.293000221252441 -5.293000221252441,5.293000221252441"/></g><g opacity="1" transform="matrix(1,0,0,1,250,163.43600463867188)"><path stroke-linecap="round" stroke-linejoin="round" fill-opacity="0" class="primary" stroke="rgb(18,19,49)" stroke-opacity="1" stroke-width="7" d=" M0,-7.486000061035156 C0,-7.486000061035156 0,7.486000061035156 0,7.486000061035156"/></g><g opacity="1" transform="matrix(1,0,0,1,174.13699340820312,194.86000061035156)"><path stroke-linecap="round" stroke-linejoin="round" fill-opacity="0" class="primary" stroke="rgb(18,19,49)" stroke-opacity="1" stroke-width="7" d=" M-5.293000221252441,-5.293000221252441 C-5.293000221252441,-5.293000221252441 5.293000221252441,5.293000221252441 5.293000221252441,5.293000221252441"/></g><g opacity="1" transform="matrix(1,0,0,1,142.71299743652344,270.7229919433594)"><path stroke-linecap="round" stroke-linejoin="round" fill-opacity="0" class="primary" stroke="rgb(18,19,49)" stroke-opacity="1" stroke-width="7" d=" M-7.486000061035156,0 C-7.486000061035156,0 7.486000061035156,0 7.486000061035156,0"/></g><g opacity="1" transform="matrix(1,0,0,1,174.13699340820312,346.58599853515625)"><path stroke-linecap="round" stroke-linejoin="round" fill-opacity="0" class="primary" stroke="rgb(18,19,49)" stroke-opacity="1" stroke-width="7" d=" M-5.293000221252441,5.293000221252441 C-5.293000221252441,5.293000221252441 5.293000221252441,-5.293000221252441 5.293000221252441,-5.293000221252441"/></g></g></g><g transform="matrix(1.0399999618530273,0,0,1.0399999618530273,215.4989471435547,211.08956909179688)" opacity="1" style="display: block;"><g opacity="1" transform="matrix(1,0,0,1,0,0)"><path class="quaternary" fill="rgb(242,76,0)" fill-opacity="1" d=" M12.446000099182129,28.0939998626709 C12.446000099182129,34.87699890136719 6.938000202178955,40.51300048828125 0.0010000000474974513,40.51300048828125 C-7.355000019073486,40.51300048828125 -13.111000061035156,34.16699981689453 -12.383999824523926,26.844999313354492 C-12.383999824523926,26.844999313354492 -1.9739999771118164,-38.82600021362305 -1.9739999771118164,-38.82600021362305 C-1.6169999837875366,-41.07500076293945 1.6200000047683716,-41.07500076293945 1.9769999980926514,-38.82600021362305 C1.9769999980926514,-38.82600021362305 12.38599967956543,26.844999313354492 12.38599967956543,26.844999313354492 C12.428999900817871,27.263999938964844 12.446000099182129,27.683000564575195 12.446000099182129,28.0939998626709z"/><path stroke-linecap="round" stroke-linejoin="round" fill-opacity="0" class="primary" stroke="rgb(18,19,49)" stroke-opacity="1" stroke-width="7" d=" M12.446000099182129,28.0939998626709 C12.446000099182129,34.87699890136719 6.938000202178955,40.51300048828125 0.0010000000474974513,40.51300048828125 C-7.355000019073486,40.51300048828125 -13.111000061035156,34.16699981689453 -12.383999824523926,26.844999313354492 C-12.383999824523926,26.844999313354492 -1.9739999771118164,-38.82600021362305 -1.9739999771118164,-38.82600021362305 C-1.6169999837875366,-41.07500076293945 1.6200000047683716,-41.07500076293945 1.9769999980926514,-38.82600021362305 C1.9769999980926514,-38.82600021362305 12.38599967956543,26.844999313354492 12.38599967956543,26.844999313354492 C12.428999900817871,27.263999938964844 12.446000099182129,27.683000564575195 12.446000099182129,28.0939998626709z"/></g></g></g></g></svg>